# xmcd
#
# Track frame offsets: 
#        150
#        25127
#        46975
#        62942
#        89139
#        110630
#        127981
#        150116
#        175094
#        204840
#
# Disc length: 3124 seconds
#
# Revision: 0
# Processed by: cddbd v1.5.2PL0 Copyright (c) Steve Scherf et al.
# Submitted via: ExactAudioCopy v0.99pb4
#
DISCID=7c0c320a
DTITLE=Ingram - Night Stalkers
DYEAR=1984
DGENRE=Soul
TTITLE0=Night Stalkers
TTITLE1=With You
TTITLE2=Drivin' Me Crazy
TTITLE3=When You're Hot You're Hot
TTITLE4=Just For You
TTITLE5=I Like It
TTITLE6=Fantasy
TTITLE7=Hot Body
TTITLE8=With You (Extended 12 Inch Mix)
TTITLE9=Girl What's Goin' On (12 Inch Mix)
EXTD=
EXTT0=
EXTT1=
EXTT2=
EXTT3=
EXTT4=
EXTT5=
EXTT6=
EXTT7=
EXTT8=
EXTT9=
PLAYORDER=
